<!-- <svg width="40" height="40" viewBox="0 0 40 40" fill="none" xmlns="http://www.w3.org/2000/svg">
<rect width="40" height="40" rx="8" fill="#F3F4F6"/>
<path d="M10.7711 20.2181C10.896 19.8272 11.0446 19.0303 11.3909 18.33C13.0765 14.9286 15.6838 12.4547 19.1657 10.9518C19.8376 10.6622 20.6373 10.5695 21.3793 10.5657C22.3068 10.561 22.9286 11.2064 23.0099 12.1424C23.0525 12.6298 23.0469 13.1712 22.8793 13.6198C21.2298 18.0319 18.117 20.9866 13.7409 22.6466C13.5705 22.7109 13.3803 22.7279 13.1967 22.7526C11.707 22.957 10.7483 22.1128 10.7711 20.2181ZM22.2235 16.9483C24.6425 16.7789 27.0208 16.6123 29.5127 16.4372C29.331 16.264 29.2288 16.1504 29.1105 16.0558C26.9413 14.3163 24.7665 12.5844 22.6058 10.8345C22.3919 10.6613 22.2594 10.3887 21.9736 10.0102C22.9021 10.0102 23.6526 10.0017 24.4031 10.0121C25.3088 10.0253 26.2362 9.9373 27.1164 10.1001C29.0196 10.4521 30.0351 11.6796 29.9991 13.6141C29.966 15.4274 29.7786 17.2379 29.6442 19.0483C29.4389 21.8203 29.2231 24.5924 29.0092 27.3634C28.9723 27.8414 28.9278 28.3193 28.8795 28.8871C27.8735 27.9909 26.911 27.1344 25.9504 26.277C25.8264 26.1662 25.7233 26.0233 25.5861 25.9353C24.4116 25.1876 23.9213 24.0728 23.6544 22.7402C23.3062 20.9989 22.7961 19.2897 22.3569 17.5663C22.3077 17.3732 22.2718 17.1763 22.2225 16.9464L22.2235 16.9483ZM13.1532 27.5499C13.6708 27.4779 14.1554 27.4477 14.6172 27.3284C14.7989 27.282 15.01 27.0606 15.0687 26.8751C15.504 25.4981 15.9034 24.1087 16.3151 22.7251C16.351 22.604 16.4012 22.4866 16.4675 22.3059C18.9868 23.1122 21.4862 23.9128 24.0595 24.7362C22.7203 26.0877 21.296 27.2205 19.7042 28.2389C22.5405 28.4556 25.3769 28.6723 28.2133 28.889C28.2133 28.925 28.2133 28.9619 28.2142 28.9979C27.6028 29.0414 26.9915 29.0868 26.3801 29.1275C22.7724 29.3651 19.1657 29.6017 15.558 29.8373C14.9844 29.8752 14.41 29.9376 13.8374 29.9272C11.4089 29.8828 10.0329 28.5521 10.0016 26.1161C9.98365 24.7476 10.1247 23.3772 10.2117 22.0087C10.2184 21.9055 10.366 21.8109 10.4483 21.7125C10.5704 21.8213 10.7483 21.9065 10.808 22.0428C11.5329 23.7236 12.2408 25.4119 12.9535 27.0975C13.0112 27.2328 13.0727 27.3663 13.1532 27.5499Z" fill="#EB5757"/>
</svg> -->

<svg width="20" height="20" viewBox="0 0 20 20" fill="none" xmlns="http://www.w3.org/2000/svg">
<path d="M0.771054 10.2181C0.895979 9.82722 1.04456 9.03035 1.39095 8.33001C3.07649 4.92863 5.68384 2.45473 9.16565 0.951846C9.8376 0.662246 10.6373 0.569498 11.3793 0.565713C12.3068 0.560981 12.9286 1.20643 13.0099 2.14242C13.0525 2.62982 13.0469 3.17116 12.8793 3.61976C11.2298 8.03189 8.11704 10.9866 3.74087 12.6466C3.57052 12.7109 3.38029 12.7279 3.19669 12.7526C1.70705 12.957 0.74834 12.1128 0.771054 10.2181V10.2181ZM12.2235 6.94826C14.6425 6.77885 17.0208 6.61229 19.5127 6.4372C19.331 6.26401 19.2288 6.15044 19.1105 6.0558C16.9413 4.31631 14.7665 2.58439 12.6058 0.834491C12.3919 0.6613 12.2594 0.388735 11.9736 0.010174C12.9021 0.010174 13.6526 0.00165624 14.4031 0.0120667C15.3088 0.0253163 16.2362 -0.0626993 17.1164 0.100082C19.0196 0.452144 20.0351 1.67963 19.9991 3.61408C19.966 5.42739 19.7786 7.23786 19.6442 9.04833C19.4389 11.8203 19.2231 14.5924 19.0092 17.3634C18.9723 17.8414 18.9278 18.3193 18.8795 18.8871C17.8735 17.9909 16.911 17.1344 15.9504 16.277C15.8264 16.1662 15.7233 16.0233 15.5861 15.9353C14.4116 15.1876 13.9213 14.0728 13.6544 12.7402C13.3062 10.9989 12.7961 9.28966 12.3569 7.56626C12.3077 7.37319 12.2718 7.17634 12.2225 6.94637L12.2235 6.94826ZM3.15315 17.5499C3.67083 17.4779 4.15539 17.4477 4.61724 17.3284C4.79895 17.282 5.00999 17.0606 5.06867 16.8751C5.50402 15.4981 5.9034 14.1087 6.31509 12.7251C6.35105 12.604 6.40121 12.4866 6.46746 12.3059C8.98678 13.1122 11.4862 13.9128 14.0595 14.7362C12.7203 16.0877 11.296 17.2205 9.70416 18.2389C12.5405 18.4556 15.3769 18.6723 18.2133 18.889C18.2133 18.925 18.2133 18.9619 18.2142 18.9979C17.6028 19.0414 16.9915 19.0868 16.3801 19.1275C12.7724 19.3651 9.16565 19.6017 5.55796 19.8373C4.98444 19.8752 4.40998 19.9376 3.8374 19.9272C1.40893 19.8828 0.0328585 18.5521 0.00162714 16.1161C-0.0163545 14.7476 0.12466 13.3772 0.211729 12.0087C0.218354 11.9055 0.365993 11.8109 0.44833 11.7125C0.570416 11.8213 0.74834 11.9065 0.807963 12.0428C1.53291 13.7236 2.24082 15.4119 2.95346 17.0975C3.01119 17.2328 3.07271 17.3663 3.15315 17.5499V17.5499Z" fill="#EB5757"/>
</svg>

