<!-- <svg width="40" height="40" viewBox="0 0 40 40" fill="none" xmlns="http://www.w3.org/2000/svg">
<rect width="40" height="40" rx="8" fill="#F3F4F6"/>
<g clip-path="url(#clip0_6543_849)">
<path d="M17.6743 20.8242L10.3864 28.1121C10.0349 28.4636 9.46508 28.4636 9.11363 28.1121L8.26358 27.2621C7.91269 26.9112 7.91201 26.3425 8.26208 25.9908L14.0379 20.1878L8.26211 14.3849C7.91205 14.0332 7.91273 13.4645 8.26361 13.1136L9.11363 12.2636C9.46512 11.9121 10.035 11.9121 10.3864 12.2636L17.6743 19.5514C18.0258 19.9029 18.0258 20.4727 17.6743 20.8242ZM32 27.6878V26.4878C32 25.9908 31.5971 25.5878 31.1 25.5878H19.7C19.2029 25.5878 18.8 25.9908 18.8 26.4878V27.6878C18.8 28.1849 19.2029 28.5878 19.7 28.5878H31.1C31.5971 28.5878 32 28.1849 32 27.6878Z" fill="black"/>
</g>
<defs>
<clipPath id="clip0_6543_849">
<rect width="24" height="24" fill="white" transform="translate(8 8)"/>
</clipPath>
</defs>
</svg> -->


<svg width="24" height="17" viewBox="0 0 24 17" fill="none" xmlns="http://www.w3.org/2000/svg">
<path d="M9.67429 8.82423L2.38642 16.1121C2.03493 16.4636 1.46508 16.4636 1.11363 16.1121L0.263577 15.2621C-0.0873113 14.9112 -0.0879863 14.3425 0.262077 13.9908L6.03791 8.18782L0.262114 2.38488C-0.0879488 2.03317 -0.0872738 1.46448 0.263614 1.1136L1.11363 0.263585C1.46512 -0.0879024 2.03497 -0.0879024 2.38642 0.263585L9.67429 7.55144C10.0258 7.90289 10.0258 8.47274 9.67429 8.82423ZM24 15.6878V14.4878C24 13.9908 23.5971 13.5878 23.1 13.5878H11.7C11.2029 13.5878 10.8 13.9908 10.8 14.4878V15.6878C10.8 16.1849 11.2029 16.5878 11.7 16.5878H23.1C23.5971 16.5878 24 16.1849 24 15.6878Z" fill="black"/>
</svg>
